<?xml version="1.0" encoding="utf-8"?>
<!-- Generator: Adobe Illustrator 24.1.2, SVG Export Plug-In . SVG Version: 6.00 Build 0)  -->
<svg version="1.1" id="Layer_1" xmlns="http://www.w3.org/2000/svg" xmlns:xlink="http://www.w3.org/1999/xlink" x="0px" y="0px"
	 viewBox="1000 950 2000 600" style="enable-background:new 0 0 4000 2416;" xml:space="preserve">
<style type="text/css">
	.st0{fill-rule:evenodd;clip-rule:evenodd;fill:#FFFFFF;}
	.st1{fill-rule:evenodd;clip-rule:evenodd;fill:#F47722;}
	.st2{fill-rule:evenodd;clip-rule:evenodd;fill:#7B7B7C;}
</style>
<g>
	<polygon class="st2" points="2164.8,1420.74 2164.8,978.66 2068.95,978.66 2068.95,1420.74 2068.95,1497.58 2164.8,1497.58 
		2463.14,1497.58 2463.14,1420.74 	"/>
	<path class="st2" d="M1237.28,1030.77c33.37,0,60.91,8.26,82.99,25.27c22.03,17.6,32.89,38.88,32.89,63.82h99.95
		c0-39.36-11.34-71.06-33.69-94.77c-22.46-23.87-48.82-41.63-79.44-53.57c-16.95-5.51-34.28-9.94-51.73-12.85
		c-17.6-3.24-34.61-4.91-50.97-4.91c-29.98,0-61.83,5.18-95.04,15.17c-33.21,9.77-60.64,26.14-82.35,48.65
		c-11.77,11.18-21.12,24.62-28.02,40.28c-7.35,15.77-11.18,33.21-11.18,52.81c0,29.97,7.18,54,21.44,72.2
		c13.77,18.84,31.53,33.53,53.14,44.28c33.21,16.36,70.84,27.22,112.96,32.89c41.9,5.83,77.43,13.77,106.37,24.51
		c16.2,5.67,29.22,12.85,38.56,21.55c8.74,8.91,13.44,20.36,13.44,34.77c0,28.13-12.52,48.65-37.63,61.24
		c-25.54,12.36-56.33,18.63-92.13,18.63c-36.29,0-67.06-8.1-92.18-24.3c-25.7-16.25-38.55-39.52-38.55-69.66h-99.95
		c0,22.03,3.67,41.47,10.26,58.32c7.67,17.6,17.28,32.62,29.05,45.14c22.35,23.76,51.3,40.88,86.93,51.46
		c35.1,10.69,69.99,15.87,104.44,15.87c34.4,0,69.34-4.7,104.38-13.88c35.21-9.99,63.67-26.35,86.02-48.87
		c12.53-11.77,22.2-25.87,29.1-42.23c6.7-16.36,10.1-35.05,10.1-56.32c0-30.19-6.75-54.38-20.52-72.41
		c-13.61-18.2-31.38-32.78-53.3-43.14c-32.88-16.42-70.52-27.11-112.48-32.18c-41.96-5.67-77.76-13.45-107.13-23.54
		c-15.77-4.91-28.35-11.77-37.7-20.68c-9.18-8.69-13.77-19.87-13.77-33.64c0-23.27,10.59-42.6,32.02-57.4
		C1175.45,1038.27,1203.48,1030.77,1237.28,1030.77L1237.28,1030.77z"/>
	<path class="st2" d="M1882.77,978.66l-118.63,190.13l-31.1,49.87l-49.25,78.92v200h95.63v-196.72
		c106.71-160.71,178.04-268.32,213.99-322.21H1882.77z"/>
	<polygon class="st1" points="1585.19,978.66 1468.71,978.66 1626.87,1220.51 1682.22,1137.36 	"/>
	<g>
		<path class="st2" d="M2974.51,1391.71c-12.69,18.19-27.85,34.67-45.47,49.64c-43.2,37.51-99.09,56.27-168.05,56.27
			c-83.17,0-149.67-26.15-199.69-78.81c-50.21-53.05-75.59-118.22-75.59-194.58c0-77.11,25.39-142.28,75.59-195.52
			c50.02-52.67,116.52-78.81,199.69-78.81c68.96,0,124.85,18.76,168.05,56.27c13.45,11.56,25.58,24.06,36,37.32l-72.94,50.96
			c-8.72-11.56-18.95-22.17-30.69-31.83c-28.04-22.74-61.39-33.91-100.41-33.91c-51.34,0-93.21,18.19-125.61,54.56
			c-33.34,35.62-49.64,82.6-49.64,140.96c0,57.6,16.29,104.58,49.64,140.2c32.4,36.38,74.27,54.37,125.61,54.37
			c39.03,0,72.37-11.18,100.41-33.72c15.91-13.07,29.18-28.04,39.6-44.9L2974.51,1391.71z"/>
		<path class="st1" d="M2993.83,1189.96l-161.39,0.01c-12.07-22.24-35.35-37.52-62.43-37.52c-39.38,0-71.31,31.93-71.31,71.31
			c0,39.38,31.93,71.31,71.31,71.31c27.09,0,50.36-15.28,62.43-37.52l161.39-0.01V1189.96z"/>
	</g>
</g>
</svg>
